<?xml version="1.0" encoding="UTF-8"?>
<svg width="259px" height="84px" viewBox="0 0 259 84" version="1.1" xmlns="http://www.w3.org/2000/svg" xmlns:xlink="http://www.w3.org/1999/xlink">
    <!-- Generator: Sketch 54.1 (76490) - https://sketchapp.com -->
    <title>Group</title>
    <desc>Created with Sketch.</desc>
    <g id="Page-1" stroke="none" stroke-width="1" fill="none" fill-rule="evenodd">
        <g id="Login" transform="translate(-78.000000, -91.000000)">
            <g id="Group" transform="translate(80.000000, 91.000000)">
                <path d="M61.5294246,40.2770449 L56.3226865,40.2770449 C56.0747454,40.2770449 55.8639985,40.3632357 55.6904397,40.5356201 C55.5168809,40.7080044 55.4301028,40.9173251 55.4301028,41.1635884 L55.4301028,59.6332454 C55.4301028,59.8795087 55.3495232,60.0888294 55.1883614,60.2612137 C55.0271997,60.433598 54.8102544,60.5197889 54.5375191,60.5197889 L48.9588711,60.5197889 C48.71093,60.5197889 48.5001832,60.433598 48.3266244,60.2612137 C48.1530656,60.0888294 48.0662875,59.8795087 48.0662875,59.6332454 L48.0662875,41.1635884 C48.0662875,40.9173251 47.9857078,40.7080044 47.8245461,40.5356201 C47.6633843,40.3632357 47.4464391,40.2770449 47.1737038,40.2770449 L41.8925837,40.2770449 C41.6446425,40.2770449 41.4338957,40.190854 41.2603369,40.0184697 C41.0867781,39.8460853 41,39.6367634 41,39.3905013 L41,34.3667546 C41,34.1204913 41.0867781,33.9111706 41.2603369,33.7387863 C41.4338957,33.566402 41.6446425,33.4802111 41.8925837,33.4802111 L61.5294246,33.4802111 C61.8021599,33.4802111 62.0191052,33.566402 62.1802669,33.7387863 C62.3414286,33.9111706 62.4220083,34.1204913 62.4220083,34.3667546 L62.4220083,39.3905013 C62.4220083,39.6367646 62.3414286,39.8460853 62.1802669,40.0184697 C62.0191052,40.190854 61.8021599,40.2770449 61.5294246,40.2770449 Z M73.4677313,60.5197889 L67.9262743,60.5197889 C67.6783332,60.5197889 67.4675864,60.433598 67.2940276,60.2612137 C67.1204688,60.0888294 67.0336907,59.8795087 67.0336907,59.6332454 L67.0336907,34.3667546 C67.0336907,34.1204913 67.1204688,33.9111706 67.2940276,33.7387863 C67.4675864,33.566402 67.6783332,33.4802111 67.9262743,33.4802111 L79.4926712,33.4802111 C80.9307299,33.4802111 82.2571951,33.7203142 83.4721068,34.2005277 C84.6870184,34.6807412 85.7221572,35.3517987 86.5775541,36.2137203 C87.4329511,37.075642 88.1023822,38.0976194 88.5858674,39.2796834 C89.0693527,40.4617473 89.3110917,41.7669234 89.3110917,43.1952507 C89.3110917,43.9832933 89.2181151,44.7651676 89.0321593,45.5408971 C88.8462034,46.3166266 88.5796707,47.049249 88.2325531,47.7387863 C87.8854354,48.4283236 87.4763387,49.0501292 87.0052505,49.6042216 C86.5341623,50.1583141 86.0010968,50.6200509 85.4060381,50.9894459 C85.2076851,51.1372039 85.077518,51.3157421 85.0155327,51.525066 C84.9535474,51.7343898 84.9969365,51.937554 85.1457012,52.1345646 C86.0878775,53.3658813 87.0796273,54.6341184 88.1209801,55.939314 C89.1623329,57.2445096 90.0920983,58.4388688 90.9103041,59.5224274 C91.0590688,59.7194381 91.0962594,59.9349153 91.0218771,60.1688654 C90.9474947,60.4028156 90.7863354,60.5197889 90.5383942,60.5197889 L83.6208707,60.5197889 C83.3729296,60.5197889 83.1063968,60.4520675 82.8212645,60.3166227 C82.5361322,60.1811779 82.3191869,60.0149526 82.1704222,59.817942 C81.3770105,58.783636 80.5898092,57.7370326 79.8087946,56.6781003 C79.0277799,55.619168 78.2529755,54.5479386 77.4843579,53.4643799 C77.3355932,53.2673693 77.1248464,53.101144 76.8521111,52.9656992 C76.5793759,52.8302544 76.3190416,52.762533 76.0711004,52.762533 L75.2528987,52.762533 C75.0049576,52.762533 74.7942107,52.8487239 74.6206519,53.0211082 C74.4470931,53.1934925 74.360315,53.4028132 74.360315,53.6490765 L74.360315,59.6332454 C74.360315,59.8795087 74.2735369,60.0888294 74.0999781,60.2612137 C73.9264193,60.433598 73.7156725,60.5197889 73.4677313,60.5197889 Z M75.2528987,45.9656992 L79.1951433,45.9656992 C79.4926727,45.9656992 79.8025945,45.9102908 80.124918,45.7994723 C80.4472415,45.6886538 80.7447664,45.5162721 81.0175016,45.2823219 C81.2902369,45.0483717 81.5133806,44.7590167 81.6869394,44.414248 C81.8604982,44.0694794 81.9472763,43.663151 81.9472763,43.1952507 C81.9472763,42.9489873 81.9038873,42.6596323 81.8171079,42.3271768 C81.7303285,41.9947213 81.581566,41.6745838 81.370816,41.3667546 C81.160066,41.0589255 80.874938,40.8003528 80.5154233,40.591029 C80.1559087,40.3817052 79.7158197,40.2770449 79.1951433,40.2770449 L75.2528987,40.2770449 C75.0049576,40.2770449 74.7942107,40.3632357 74.6206519,40.5356201 C74.4470931,40.7080044 74.360315,40.9173251 74.360315,41.1635884 L74.360315,45.0791557 C74.360315,45.325419 74.4470931,45.5347397 74.6206519,45.707124 C74.7942107,45.8795083 75.0049576,45.9656992 75.2528987,45.9656992 Z M95.4847954,34.4036939 C95.4847954,34.1574306 95.5715736,33.9481099 95.7451324,33.7757256 C95.9186912,33.6033413 96.129438,33.5171504 96.3773791,33.5171504 L101.993218,33.5171504 C102.241159,33.5171504 102.451906,33.6033413 102.625465,33.7757256 C102.799024,33.9481099 102.885802,34.1574306 102.885802,34.4036939 L102.885802,49.3641161 C102.885802,50.3245431 103.040763,51.1187304 103.350689,51.7467018 C103.660616,52.3746733 104.044919,52.8671926 104.50361,53.2242744 C104.962301,53.5813562 105.451977,53.8337723 105.972654,53.9815303 C106.49333,54.1292883 106.964411,54.2031662 107.385911,54.2031662 C107.807411,54.2031662 108.278492,54.1292883 108.799169,53.9815303 C109.319845,53.8337723 109.803323,53.5813562 110.249617,53.2242744 C110.695911,52.8671926 111.074016,52.3746733 111.383942,51.7467018 C111.693869,51.1187304 111.84883,50.3245431 111.84883,49.3641161 L111.84883,34.4036939 C111.84883,34.1574306 111.935608,33.9481099 112.109166,33.7757256 C112.282725,33.6033413 112.493472,33.5171504 112.741413,33.5171504 L118.357252,33.5171504 C118.605193,33.5171504 118.81594,33.6033413 118.989499,33.7757256 C119.163058,33.9481099 119.249836,34.1574306 119.249836,34.4036939 L119.249836,49.3641161 C119.249836,51.1125857 118.970906,52.7009603 118.413039,54.1292876 C117.855171,55.5576149 117.055573,56.7766001 116.01422,57.7862797 C114.972867,58.7959593 113.720783,59.5778336 112.25793,60.1319261 C110.795078,60.6860186 109.171087,60.9630607 107.385911,60.9630607 C105.600735,60.9630607 103.976745,60.6860186 102.513892,60.1319261 C101.051039,59.5778336 99.7989551,58.7959593 98.7576023,57.7862797 C97.7162494,56.7766001 96.9104528,55.5576149 96.3401881,54.1292876 C95.7699235,52.7009603 95.4847954,51.1125857 95.4847954,49.3641161 L95.4847954,34.4036939 Z M152.796106,53.3166227 C152.077077,54.4740603 151.283677,55.5268202 150.415883,56.474934 C149.548089,57.4230478 148.574934,58.2295481 147.49639,58.8944591 C146.417846,59.5593701 145.221548,60.0765153 143.90746,60.4459103 C142.593372,60.8153053 141.142938,61 139.556115,61 C137.572585,61 135.713055,60.6306106 133.977467,59.8918206 C132.241879,59.1530306 130.723262,58.1556791 129.421571,56.8997361 C128.11988,55.6437932 127.097138,54.1662354 126.353314,52.4670185 C125.609491,50.7678015 125.237585,48.9577932 125.237585,47.0369393 C125.237585,45.1160854 125.609491,43.3060771 126.353314,41.6068602 C127.097138,39.9076432 128.11988,38.4300854 129.421571,37.1741425 C130.723262,35.9181995 132.241879,34.920848 133.977467,34.182058 C135.713055,33.4432681 137.572585,33.0738786 139.556115,33.0738786 C141.192526,33.0738786 142.667754,33.2585734 143.981842,33.6279683 C145.29593,33.9973633 146.48603,34.5145085 147.552177,35.1794195 C148.618324,35.8443305 149.579081,36.6508308 150.434478,37.5989446 C151.289875,38.5470584 152.077077,39.5875053 152.796106,40.7203166 C152.920076,40.9173273 152.94487,41.126648 152.870488,41.348285 C152.796106,41.569922 152.647343,41.7299907 152.424196,41.828496 L147.143076,43.8970976 C146.895135,43.995603 146.647197,43.995603 146.399256,43.8970976 C146.151315,43.7985923 145.965362,43.6508365 145.841391,43.4538259 C145.122362,42.3210146 144.254581,41.4529494 143.238022,40.8496042 C142.221464,40.2462591 140.994173,39.944591 139.556115,39.944591 C138.613938,39.944591 137.727562,40.1415987 136.896959,40.5356201 C136.066356,40.9296414 135.341139,41.4529431 134.721286,42.1055409 C134.101433,42.7581387 133.617956,43.5153871 133.270838,44.3773087 C132.92372,45.2392303 132.750164,46.125765 132.750164,47.0369393 C132.750164,47.9727399 132.92372,48.8654311 133.270838,49.7150396 C133.617956,50.564648 134.101433,51.3095834 134.721286,51.9498681 C135.341139,52.5901527 136.066356,53.1072979 136.896959,53.5013193 C137.727562,53.8953406 138.613938,54.0923483 139.556115,54.0923483 C140.919791,54.0923483 142.15328,53.7660543 143.256618,53.1134565 C144.359956,52.4608587 145.233935,51.6174194 145.878582,50.5831135 C146.002553,50.3861028 146.182308,50.238347 146.417852,50.1398417 C146.653396,50.0413364 146.895135,50.0413364 147.143076,50.1398417 L152.424196,52.2084433 C152.647343,52.3069486 152.796106,52.4608609 152.870488,52.6701847 C152.94487,52.8795085 152.920076,53.0949857 152.796106,53.3166227 Z M172.581711,59.8548813 L165.366659,51.8390501 C165.193101,51.6420395 165.050537,51.5681616 164.938963,51.6174142 C164.82739,51.6666669 164.771604,51.8144227 164.771604,52.060686 L164.771604,59.6332454 C164.771604,59.8795087 164.684825,60.0888294 164.511267,60.2612137 C164.337708,60.433598 164.126961,60.5197889 163.87902,60.5197889 L158.300372,60.5197889 C158.027637,60.5197889 157.810691,60.433598 157.64953,60.2612137 C157.488368,60.0888294 157.407788,59.8795087 157.407788,59.6332454 L157.407788,34.3667546 C157.407788,34.1204913 157.488368,33.9111706 157.64953,33.7387863 C157.810691,33.566402 158.027637,33.4802111 158.300372,33.4802111 L163.87902,33.4802111 C164.126961,33.4802111 164.337708,33.566402 164.511267,33.7387863 C164.684825,33.9111706 164.771604,34.1204913 164.771604,34.3667546 L164.771604,42.8627968 C164.771604,43.1090602 164.821191,43.2506594 164.920368,43.2875989 C165.019544,43.3245384 165.143513,43.2445041 165.292277,43.0474934 L171.986655,34.2189974 C172.13542,34.0219867 172.346167,33.8557615 172.618902,33.7203166 C172.891637,33.5848718 173.164368,33.5171504 173.437103,33.5171504 L180.540582,33.5171504 C180.813317,33.5171504 180.986873,33.6341237 181.061256,33.8680739 C181.135638,34.102024 181.098447,34.3175012 180.949683,34.5145119 L171.168453,46.6675462 C171.019689,46.8645568 170.951506,47.092347 170.963903,47.3509235 C170.9763,47.6095 171.069276,47.8249772 171.242835,47.9973615 C172.085835,48.9085358 172.97841,49.8566354 173.920586,50.8416887 C174.862763,51.826742 175.798726,52.817937 176.728506,53.8153034 C177.658285,54.8126699 178.575654,55.7977084 179.480639,56.7704485 C180.385624,57.7431887 181.247207,58.6481928 182.065412,59.4854881 C182.238971,59.6824988 182.300956,59.9041325 182.251367,60.1503958 C182.201779,60.3966591 182.04062,60.5197889 181.767884,60.5197889 L174.06935,60.5197889 C173.796615,60.5197889 173.517685,60.458224 173.232553,60.3350923 C172.947421,60.2119607 172.730475,60.0518919 172.581711,59.8548813 Z M182.846423,47 C182.846423,45.0791461 183.218329,43.2691378 183.962153,41.5699208 C184.705976,39.8707039 185.710123,38.3869896 186.974623,37.1187335 C188.239122,35.8504774 189.726747,34.8469694 191.437541,34.1081794 C193.148335,33.3693894 194.970675,33 196.904616,33 C198.838557,33 200.660897,33.3693894 202.371691,34.1081794 C204.082485,34.8469694 205.576308,35.8504774 206.853205,37.1187335 C208.130102,38.3869896 209.140447,39.8707039 209.88427,41.5699208 C210.628094,43.2691378 211,45.0791461 211,47 C211,48.9208539 210.628094,50.7308622 209.88427,52.4300792 C209.140447,54.1292961 208.130102,55.6130104 206.853205,56.8812665 C205.576308,58.1495226 204.082485,59.1530306 202.371691,59.8918206 C200.660897,60.6306106 198.838557,61 196.904616,61 C194.970675,61 193.148335,60.6306106 191.437541,59.8918206 C189.726747,59.1530306 188.239122,58.1495226 186.974623,56.8812665 C185.710123,55.6130104 184.705976,54.1292961 183.962153,52.4300792 C183.218329,50.7308622 182.846423,48.9208539 182.846423,47 Z M190.210238,47 C190.210238,47.9358006 190.383795,48.8223353 190.730912,49.6596306 C191.07803,50.4969259 191.555309,51.2357048 192.162765,51.8759894 C192.770221,52.5162741 193.483041,53.0272628 194.301247,53.408971 C195.119453,53.7906791 195.987234,53.9815303 196.904616,53.9815303 C197.821998,53.9815303 198.689779,53.7906791 199.507985,53.408971 C200.326191,53.0272628 201.045209,52.5162741 201.665062,51.8759894 C202.284915,51.2357048 202.768393,50.4969259 203.115511,49.6596306 C203.462628,48.8223353 203.636185,47.9358006 203.636185,47 C203.636185,46.0888257 203.462628,45.2084475 203.115511,44.3588391 C202.768393,43.5092306 202.284915,42.7704517 201.665062,42.1424802 C201.045209,41.5145087 200.326191,41.0096765 199.507985,40.6279683 C198.689779,40.2462602 197.821998,40.055409 196.904616,40.055409 C195.987234,40.055409 195.119453,40.2462602 194.301247,40.6279683 C193.483041,41.0096765 192.770221,41.5145087 192.162765,42.1424802 C191.555309,42.7704517 191.07803,43.5092306 190.730912,44.3588391 C190.383795,45.2084475 190.210238,46.0888257 190.210238,47 Z" id="Trucko" fill="#F28444" fill-rule="nonzero"></path>
                <path d="M57,5 L1.12151351,60.8784865" id="Line" stroke="#F28444" stroke-width="4" stroke-linecap="square"></path>
                <path d="M254,25 L198.121514,80.8784865" id="Line-Copy" stroke="#F28444" stroke-width="4" stroke-linecap="square"></path>
                <circle id="Oval" fill="#3C3C3C" cx="219.5" cy="77.5" r="4.5"></circle>
                <circle id="Oval-Copy" fill="#3C3C3C" cx="40.5" cy="4.5" r="4.5"></circle>
            </g>
        </g>
    </g>
</svg>