<?xml version="1.0" encoding="UTF-8"?>
<svg width="32px" height="24px" viewBox="0 0 32 24" version="1.1" xmlns="http://www.w3.org/2000/svg" xmlns:xlink="http://www.w3.org/1999/xlink">
    <!-- Generator: Sketch 54.1 (76490) - https://sketchapp.com -->
    <title>MenuIcon</title>
    <desc>Created with Sketch.</desc>
    <g id="Page-1" stroke="none" stroke-width="1" fill="none" fill-rule="evenodd">
        <g id="Perfil" transform="translate(-16.000000, -32.000000)" fill="#FFFFFF" fill-rule="nonzero">
            <g id="MenuIcon" transform="translate(16.000000, 32.000000)">
                <path d="M30.6666667,12.8889974 L1.33333333,12.8889974 C0.59733075,12.8889974 0,12.2916667 0,11.5556641 C0,10.8196615 0.59733075,10.2223308 1.33333333,10.2223308 L30.6666667,10.2223308 C31.4026693,10.2223308 32,10.8196615 32,11.5556641 C32,12.2916667 31.4026692,12.8889974 30.6666667,12.8889974 Z" id="Path"></path>
                <path d="M30.6666667,2.66666667 L1.33333333,2.66666667 C0.59733075,2.66666667 0,2.06933592 0,1.33333333 C0,0.59733075 0.59733075,3.77475828e-14 1.33333333,3.77475828e-14 L30.6666667,3.77475828e-14 C31.4026693,3.77475828e-14 32,0.59733075 32,1.33333333 C32,2.06933592 31.4026692,2.66666667 30.6666667,2.66666667 Z" id="Path"></path>
                <path d="M30.6666667,23.1110026 L1.33333333,23.1110026 C0.59733075,23.1110026 0,22.5136718 0,21.7776693 C0,21.0416667 0.59733075,20.4443359 1.33333333,20.4443359 L30.6666667,20.4443359 C31.4026693,20.4443359 32,21.0416667 32,21.7776693 C32,22.5136718 31.4026692,23.1110026 30.6666667,23.1110026 Z" id="Path"></path>
            </g>
        </g>
    </g>
</svg>