<?xml version="1.0" encoding="UTF-8"?>
<svg width="24px" height="25px" viewBox="0 0 24 25" version="1.1" xmlns="http://www.w3.org/2000/svg" xmlns:xlink="http://www.w3.org/1999/xlink">
    <!-- Generator: Sketch 54.1 (76490) - https://sketchapp.com -->
    <title>Shape</title>
    <desc>Created with Sketch.</desc>
    <g id="Page-1" stroke="none" stroke-width="1" fill="none" fill-rule="evenodd">
        <g id="Prêmios" transform="translate(-54.000000, -237.000000)" fill="#FFFFFF" fill-rule="nonzero">
            <g id="whatsapp" transform="translate(36.000000, 232.000000)">
                <path d="M38.5032373,8.50456268 C36.247129,6.24580507 33.2466876,5.0013247 30.0501908,5 C23.463497,5 18.1028849,10.3604649 18.1002355,16.948925 C18.0993524,19.0550479 18.6495437,21.1109795 19.6953193,22.9231667 L18,29.1153949 L24.334854,27.4536346 C26.0803647,28.4057982 28.0454809,28.9075644 30.0453336,28.9081532 L30.050338,28.9081532 C36.6362959,28.9081532 41.9974967,23.5472467 41.9999989,16.9584923 C42.0013236,13.7653808 40.7594927,10.7631731 38.5032373,8.50456268 Z M30.0501908,26.8900491 L30.0460695,26.8900491 C28.2639089,26.8893131 26.5160432,26.4103612 24.990874,25.5055923 L24.6283482,25.2902552 L20.8691491,26.2764194 L21.8725344,22.6112739 L21.6362966,22.2355011 C20.642037,20.6541059 20.1170149,18.8263167 20.117898,16.9496609 C20.1199587,11.4735057 24.5756547,7.01825131 30.0541649,7.01825131 C32.7070938,7.01913446 35.2009118,8.05357653 37.0760957,9.93096827 C38.9512796,11.80836 39.9833667,14.303797 39.9824836,16.9577563 C39.9801285,22.4343531 35.5247269,26.8900491 30.0501908,26.8900491 L30.0501908,26.8900491 Z M35.498233,19.4512799 C35.1997343,19.3017362 33.7316743,18.5796285 33.4579033,18.4798346 C33.1844268,18.3801878 32.9851333,18.3305852 32.7862813,18.6293783 C32.5871351,18.9281713 32.0150126,19.6008236 31.8407412,19.7999699 C31.6664698,19.9992634 31.4924928,20.0242855 31.1938469,19.8747418 C30.8952011,19.7253452 29.9331758,19.4099199 28.7926106,18.3926989 C27.9050629,17.6009709 27.3058577,16.6231964 27.1315863,16.3244034 C26.9576092,16.025316 27.1301144,15.8793048 27.2625842,15.7150422 C27.5858106,15.3136587 27.9094785,14.8928462 28.0089781,14.6936999 C28.1086248,14.4944064 28.0587279,14.3199878 27.983956,14.1705913 C27.9094785,14.0211948 27.312334,12.5515157 27.0635851,11.953488 C26.8210181,11.371504 26.5750659,11.4501028 26.3916687,11.440977 C26.2176917,11.4322929 26.0185454,11.4305266 25.8193991,11.4305266 C25.6204,11.4305266 25.2968793,11.5051513 25.0231083,11.8042387 C24.7494845,12.103179 23.9782158,12.8254339 23.9782158,14.2951129 C23.9782158,15.764792 25.0481304,17.1845741 25.1973797,17.3838676 C25.346629,17.583161 27.3029139,20.5990573 30.2980566,21.8922571 C31.0104498,22.2001758 31.5665287,22.3837202 32.0002938,22.5213416 C32.7156308,22.7486009 33.366352,22.7165138 33.8809237,22.6396813 C34.4546651,22.5538703 35.6473351,21.9172792 35.8963784,21.2198992 C36.1451273,20.522372 36.1451273,19.9246387 36.0703554,19.7999699 C35.9958779,19.6754483 35.7967316,19.6008236 35.498233,19.4512799 L35.498233,19.4512799 Z" id="Shape"></path>
            </g>
        </g>
    </g>
</svg>